<svg xmlns="http://www.w3.org/2000/svg" version="1.1" xmlns:xlink="http://www.w3.org/1999/xlink" xmlns:svgjs="http://svgjs.dev/svgjs" width="1440" height="560" preserveAspectRatio="none" viewBox="0 0 1440 560"><g mask="url(&quot;#SvgjsMask1058&quot;)" fill="none"><rect width="1440" height="560" x="0" y="0" fill="#0e2a47"></rect><path d="M187.38 162.59L256.66 202.59L256.66 282.59L187.38 322.59L118.09 282.59L118.09 202.59zM256.66 282.59L325.95 322.59L325.95 402.59L256.66 442.59L187.38 402.59L187.38 322.59zM395.23 282.59L464.51 322.59L464.51 402.59L395.23 442.59L325.95 402.59L325.95 322.59zM464.51 -77.41L533.8 -37.41L533.8 42.59L464.51 82.59L395.23 42.59L395.23 -37.41zM603.08 -77.41L672.37 -37.41L672.37 42.59L603.08 82.59L533.8 42.59L533.8 -37.41zM672.37 42.59L741.65 82.59L741.65 162.59L672.37 202.59L603.08 162.59L603.08 82.59zM672.37 522.59L741.65 562.59L741.65 642.59L672.37 682.59L603.08 642.59L603.08 562.59zM810.93 522.59L880.22 562.59L880.22 642.59L810.93 682.59L741.65 642.59L741.65 562.59zM1088.07 42.59L1157.35 82.59L1157.35 162.59L1088.07 202.59L1018.79 162.59L1018.79 82.59zM1365.21 282.59L1434.49 322.59L1434.49 402.59L1365.21 442.59L1295.92 402.59L1295.92 322.59zM1434.49 402.59L1503.77 442.59L1503.77 522.59L1434.49 562.59L1365.21 522.59L1365.21 442.59z" stroke="#03305d" stroke-width="2"></path><path d="M179.38 162.59 a8 8 0 1 0 16 0 a8 8 0 1 0 -16 0zM248.66 202.59 a8 8 0 1 0 16 0 a8 8 0 1 0 -16 0zM248.66 282.59 a8 8 0 1 0 16 0 a8 8 0 1 0 -16 0zM179.38 322.59 a8 8 0 1 0 16 0 a8 8 0 1 0 -16 0zM110.09 282.59 a8 8 0 1 0 16 0 a8 8 0 1 0 -16 0zM110.09 202.59 a8 8 0 1 0 16 0 a8 8 0 1 0 -16 0zM317.95 322.59 a8 8 0 1 0 16 0 a8 8 0 1 0 -16 0zM317.95 402.59 a8 8 0 1 0 16 0 a8 8 0 1 0 -16 0zM248.66 442.59 a8 8 0 1 0 16 0 a8 8 0 1 0 -16 0zM179.38 402.59 a8 8 0 1 0 16 0 a8 8 0 1 0 -16 0zM387.23 282.59 a8 8 0 1 0 16 0 a8 8 0 1 0 -16 0zM456.51 322.59 a8 8 0 1 0 16 0 a8 8 0 1 0 -16 0zM456.51 402.59 a8 8 0 1 0 16 0 a8 8 0 1 0 -16 0zM387.23 442.59 a8 8 0 1 0 16 0 a8 8 0 1 0 -16 0zM456.51 -77.41 a8 8 0 1 0 16 0 a8 8 0 1 0 -16 0zM525.8 -37.41 a8 8 0 1 0 16 0 a8 8 0 1 0 -16 0zM525.8 42.59 a8 8 0 1 0 16 0 a8 8 0 1 0 -16 0zM456.51 82.59 a8 8 0 1 0 16 0 a8 8 0 1 0 -16 0zM387.23 42.59 a8 8 0 1 0 16 0 a8 8 0 1 0 -16 0zM387.23 -37.41 a8 8 0 1 0 16 0 a8 8 0 1 0 -16 0zM595.08 -77.41 a8 8 0 1 0 16 0 a8 8 0 1 0 -16 0zM664.37 -37.41 a8 8 0 1 0 16 0 a8 8 0 1 0 -16 0zM664.37 42.59 a8 8 0 1 0 16 0 a8 8 0 1 0 -16 0zM595.08 82.59 a8 8 0 1 0 16 0 a8 8 0 1 0 -16 0zM733.65 82.59 a8 8 0 1 0 16 0 a8 8 0 1 0 -16 0zM733.65 162.59 a8 8 0 1 0 16 0 a8 8 0 1 0 -16 0zM664.37 202.59 a8 8 0 1 0 16 0 a8 8 0 1 0 -16 0zM595.08 162.59 a8 8 0 1 0 16 0 a8 8 0 1 0 -16 0zM664.37 522.59 a8 8 0 1 0 16 0 a8 8 0 1 0 -16 0zM733.65 562.59 a8 8 0 1 0 16 0 a8 8 0 1 0 -16 0zM733.65 642.59 a8 8 0 1 0 16 0 a8 8 0 1 0 -16 0zM664.37 682.59 a8 8 0 1 0 16 0 a8 8 0 1 0 -16 0zM595.08 642.59 a8 8 0 1 0 16 0 a8 8 0 1 0 -16 0zM595.08 562.59 a8 8 0 1 0 16 0 a8 8 0 1 0 -16 0zM802.93 522.59 a8 8 0 1 0 16 0 a8 8 0 1 0 -16 0zM872.22 562.59 a8 8 0 1 0 16 0 a8 8 0 1 0 -16 0zM872.22 642.59 a8 8 0 1 0 16 0 a8 8 0 1 0 -16 0zM802.93 682.59 a8 8 0 1 0 16 0 a8 8 0 1 0 -16 0zM1080.07 42.59 a8 8 0 1 0 16 0 a8 8 0 1 0 -16 0zM1149.35 82.59 a8 8 0 1 0 16 0 a8 8 0 1 0 -16 0zM1149.35 162.59 a8 8 0 1 0 16 0 a8 8 0 1 0 -16 0zM1080.07 202.59 a8 8 0 1 0 16 0 a8 8 0 1 0 -16 0zM1010.79 162.59 a8 8 0 1 0 16 0 a8 8 0 1 0 -16 0zM1010.79 82.59 a8 8 0 1 0 16 0 a8 8 0 1 0 -16 0zM1357.21 282.59 a8 8 0 1 0 16 0 a8 8 0 1 0 -16 0zM1426.49 322.59 a8 8 0 1 0 16 0 a8 8 0 1 0 -16 0zM1426.49 402.59 a8 8 0 1 0 16 0 a8 8 0 1 0 -16 0zM1357.21 442.59 a8 8 0 1 0 16 0 a8 8 0 1 0 -16 0zM1287.92 402.59 a8 8 0 1 0 16 0 a8 8 0 1 0 -16 0zM1287.92 322.59 a8 8 0 1 0 16 0 a8 8 0 1 0 -16 0zM1495.77 442.59 a8 8 0 1 0 16 0 a8 8 0 1 0 -16 0zM1495.77 522.59 a8 8 0 1 0 16 0 a8 8 0 1 0 -16 0zM1426.49 562.59 a8 8 0 1 0 16 0 a8 8 0 1 0 -16 0zM1357.21 522.59 a8 8 0 1 0 16 0 a8 8 0 1 0 -16 0z" fill="#03305d"></path><path d="M123.55 310.03L197.17 352.53L197.17 437.53L123.55 480.03L49.94 437.53L49.94 352.53zM197.17 -72.47L270.78 -29.97L270.78 55.03L197.17 97.53L123.55 55.03L123.55 -29.97zM270.78 310.03L344.4 352.53L344.4 437.53L270.78 480.03L197.17 437.53L197.17 352.53zM418.01 55.03L491.63 97.53L491.63 182.53L418.01 225.03L344.4 182.53L344.4 97.53zM344.4 182.53L418.01 225.03L418.01 310.03L344.4 352.53L270.78 310.03L270.78 225.03zM491.63 182.53L565.24 225.03L565.24 310.03L491.63 352.53L418.01 310.03L418.01 225.03zM491.63 437.53L565.24 480.03L565.24 565.03L491.63 607.53L418.01 565.03L418.01 480.03zM638.85 -72.47L712.47 -29.97L712.47 55.03L638.85 97.53L565.24 55.03L565.24 -29.97zM638.85 182.53L712.47 225.03L712.47 310.03L638.85 352.53L565.24 310.03L565.24 225.03zM712.47 310.03L786.08 352.53L786.08 437.53L712.47 480.03L638.85 437.53L638.85 352.53zM786.08 -72.47L859.7 -29.97L859.7 55.03L786.08 97.53L712.47 55.03L712.47 -29.97zM786.08 437.53L859.7 480.03L859.7 565.03L786.08 607.53L712.47 565.03L712.47 480.03zM1006.93 55.03L1080.54 97.53L1080.54 182.53L1006.93 225.03L933.31 182.53L933.31 97.53zM1154.15 55.03L1227.77 97.53L1227.77 182.53L1154.15 225.03L1080.54 182.53L1080.54 97.53zM1227.77 182.53L1301.38 225.03L1301.38 310.03L1227.77 352.53L1154.15 310.03L1154.15 225.03zM1227.77 437.53L1301.38 480.03L1301.38 565.03L1227.77 607.53L1154.15 565.03L1154.15 480.03zM1448.61 55.03L1522.23 97.53L1522.23 182.53L1448.61 225.03L1375 182.53L1375 97.53zM1375 182.53L1448.61 225.03L1448.61 310.03L1375 352.53L1301.38 310.03L1301.38 225.03zM1375 437.53L1448.61 480.03L1448.61 565.03L1375 607.53L1301.38 565.03L1301.38 480.03z" stroke="rgba(6, 80, 156, 0.93)" stroke-width="2"></path><path d="M115.05 310.03 a8.5 8.5 0 1 0 17 0 a8.5 8.5 0 1 0 -17 0zM188.67 352.53 a8.5 8.5 0 1 0 17 0 a8.5 8.5 0 1 0 -17 0zM188.67 437.53 a8.5 8.5 0 1 0 17 0 a8.5 8.5 0 1 0 -17 0zM115.05 480.03 a8.5 8.5 0 1 0 17 0 a8.5 8.5 0 1 0 -17 0zM41.44 437.53 a8.5 8.5 0 1 0 17 0 a8.5 8.5 0 1 0 -17 0zM41.44 352.53 a8.5 8.5 0 1 0 17 0 a8.5 8.5 0 1 0 -17 0zM188.67 -72.47 a8.5 8.5 0 1 0 17 0 a8.5 8.5 0 1 0 -17 0zM262.28 -29.97 a8.5 8.5 0 1 0 17 0 a8.5 8.5 0 1 0 -17 0zM262.28 55.03 a8.5 8.5 0 1 0 17 0 a8.5 8.5 0 1 0 -17 0zM188.67 97.53 a8.5 8.5 0 1 0 17 0 a8.5 8.5 0 1 0 -17 0zM115.05 55.03 a8.5 8.5 0 1 0 17 0 a8.5 8.5 0 1 0 -17 0zM115.05 -29.97 a8.5 8.5 0 1 0 17 0 a8.5 8.5 0 1 0 -17 0zM262.28 310.03 a8.5 8.5 0 1 0 17 0 a8.5 8.5 0 1 0 -17 0zM335.9 352.53 a8.5 8.5 0 1 0 17 0 a8.5 8.5 0 1 0 -17 0zM335.9 437.53 a8.5 8.5 0 1 0 17 0 a8.5 8.5 0 1 0 -17 0zM262.28 480.03 a8.5 8.5 0 1 0 17 0 a8.5 8.5 0 1 0 -17 0zM409.51 55.03 a8.5 8.5 0 1 0 17 0 a8.5 8.5 0 1 0 -17 0zM483.13 97.53 a8.5 8.5 0 1 0 17 0 a8.5 8.5 0 1 0 -17 0zM483.13 182.53 a8.5 8.5 0 1 0 17 0 a8.5 8.5 0 1 0 -17 0zM409.51 225.03 a8.5 8.5 0 1 0 17 0 a8.5 8.5 0 1 0 -17 0zM335.9 182.53 a8.5 8.5 0 1 0 17 0 a8.5 8.5 0 1 0 -17 0zM335.9 97.53 a8.5 8.5 0 1 0 17 0 a8.5 8.5 0 1 0 -17 0zM409.51 310.03 a8.5 8.5 0 1 0 17 0 a8.5 8.5 0 1 0 -17 0zM262.28 225.03 a8.5 8.5 0 1 0 17 0 a8.5 8.5 0 1 0 -17 0zM556.74 225.03 a8.5 8.5 0 1 0 17 0 a8.5 8.5 0 1 0 -17 0zM556.74 310.03 a8.5 8.5 0 1 0 17 0 a8.5 8.5 0 1 0 -17 0zM483.13 352.53 a8.5 8.5 0 1 0 17 0 a8.5 8.5 0 1 0 -17 0zM483.13 437.53 a8.5 8.5 0 1 0 17 0 a8.5 8.5 0 1 0 -17 0zM556.74 480.03 a8.5 8.5 0 1 0 17 0 a8.5 8.5 0 1 0 -17 0zM556.74 565.03 a8.5 8.5 0 1 0 17 0 a8.5 8.5 0 1 0 -17 0zM483.13 607.53 a8.5 8.5 0 1 0 17 0 a8.5 8.5 0 1 0 -17 0zM409.51 565.03 a8.5 8.5 0 1 0 17 0 a8.5 8.5 0 1 0 -17 0zM409.51 480.03 a8.5 8.5 0 1 0 17 0 a8.5 8.5 0 1 0 -17 0zM630.35 -72.47 a8.5 8.5 0 1 0 17 0 a8.5 8.5 0 1 0 -17 0zM703.97 -29.97 a8.5 8.5 0 1 0 17 0 a8.5 8.5 0 1 0 -17 0zM703.97 55.03 a8.5 8.5 0 1 0 17 0 a8.5 8.5 0 1 0 -17 0zM630.35 97.53 a8.5 8.5 0 1 0 17 0 a8.5 8.5 0 1 0 -17 0zM556.74 55.03 a8.5 8.5 0 1 0 17 0 a8.5 8.5 0 1 0 -17 0zM556.74 -29.97 a8.5 8.5 0 1 0 17 0 a8.5 8.5 0 1 0 -17 0zM630.35 182.53 a8.5 8.5 0 1 0 17 0 a8.5 8.5 0 1 0 -17 0zM703.97 225.03 a8.5 8.5 0 1 0 17 0 a8.5 8.5 0 1 0 -17 0zM703.97 310.03 a8.5 8.5 0 1 0 17 0 a8.5 8.5 0 1 0 -17 0zM630.35 352.53 a8.5 8.5 0 1 0 17 0 a8.5 8.5 0 1 0 -17 0zM777.58 352.53 a8.5 8.5 0 1 0 17 0 a8.5 8.5 0 1 0 -17 0zM777.58 437.53 a8.5 8.5 0 1 0 17 0 a8.5 8.5 0 1 0 -17 0zM703.97 480.03 a8.5 8.5 0 1 0 17 0 a8.5 8.5 0 1 0 -17 0zM630.35 437.53 a8.5 8.5 0 1 0 17 0 a8.5 8.5 0 1 0 -17 0zM777.58 -72.47 a8.5 8.5 0 1 0 17 0 a8.5 8.5 0 1 0 -17 0zM851.2 -29.97 a8.5 8.5 0 1 0 17 0 a8.5 8.5 0 1 0 -17 0zM851.2 55.03 a8.5 8.5 0 1 0 17 0 a8.5 8.5 0 1 0 -17 0zM777.58 97.53 a8.5 8.5 0 1 0 17 0 a8.5 8.5 0 1 0 -17 0zM851.2 480.03 a8.5 8.5 0 1 0 17 0 a8.5 8.5 0 1 0 -17 0zM851.2 565.03 a8.5 8.5 0 1 0 17 0 a8.5 8.5 0 1 0 -17 0zM777.58 607.53 a8.5 8.5 0 1 0 17 0 a8.5 8.5 0 1 0 -17 0zM703.97 565.03 a8.5 8.5 0 1 0 17 0 a8.5 8.5 0 1 0 -17 0zM998.43 55.03 a8.5 8.5 0 1 0 17 0 a8.5 8.5 0 1 0 -17 0zM1072.04 97.53 a8.5 8.5 0 1 0 17 0 a8.5 8.5 0 1 0 -17 0zM1072.04 182.53 a8.5 8.5 0 1 0 17 0 a8.5 8.5 0 1 0 -17 0zM998.43 225.03 a8.5 8.5 0 1 0 17 0 a8.5 8.5 0 1 0 -17 0zM924.81 182.53 a8.5 8.5 0 1 0 17 0 a8.5 8.5 0 1 0 -17 0zM924.81 97.53 a8.5 8.5 0 1 0 17 0 a8.5 8.5 0 1 0 -17 0zM1145.65 55.03 a8.5 8.5 0 1 0 17 0 a8.5 8.5 0 1 0 -17 0zM1219.27 97.53 a8.5 8.5 0 1 0 17 0 a8.5 8.5 0 1 0 -17 0zM1219.27 182.53 a8.5 8.5 0 1 0 17 0 a8.5 8.5 0 1 0 -17 0zM1145.65 225.03 a8.5 8.5 0 1 0 17 0 a8.5 8.5 0 1 0 -17 0zM1292.88 225.03 a8.5 8.5 0 1 0 17 0 a8.5 8.5 0 1 0 -17 0zM1292.88 310.03 a8.5 8.5 0 1 0 17 0 a8.5 8.5 0 1 0 -17 0zM1219.27 352.53 a8.5 8.5 0 1 0 17 0 a8.5 8.5 0 1 0 -17 0zM1145.65 310.03 a8.5 8.5 0 1 0 17 0 a8.5 8.5 0 1 0 -17 0zM1219.27 437.53 a8.5 8.5 0 1 0 17 0 a8.5 8.5 0 1 0 -17 0zM1292.88 480.03 a8.5 8.5 0 1 0 17 0 a8.5 8.5 0 1 0 -17 0zM1292.88 565.03 a8.5 8.5 0 1 0 17 0 a8.5 8.5 0 1 0 -17 0zM1219.27 607.53 a8.5 8.5 0 1 0 17 0 a8.5 8.5 0 1 0 -17 0zM1145.65 565.03 a8.5 8.5 0 1 0 17 0 a8.5 8.5 0 1 0 -17 0zM1145.65 480.03 a8.5 8.5 0 1 0 17 0 a8.5 8.5 0 1 0 -17 0zM1440.11 55.03 a8.5 8.5 0 1 0 17 0 a8.5 8.5 0 1 0 -17 0zM1513.73 97.53 a8.5 8.5 0 1 0 17 0 a8.5 8.5 0 1 0 -17 0zM1513.73 182.53 a8.5 8.5 0 1 0 17 0 a8.5 8.5 0 1 0 -17 0zM1440.11 225.03 a8.5 8.5 0 1 0 17 0 a8.5 8.5 0 1 0 -17 0zM1366.5 182.53 a8.5 8.5 0 1 0 17 0 a8.5 8.5 0 1 0 -17 0zM1366.5 97.53 a8.5 8.5 0 1 0 17 0 a8.5 8.5 0 1 0 -17 0zM1440.11 310.03 a8.5 8.5 0 1 0 17 0 a8.5 8.5 0 1 0 -17 0zM1366.5 352.53 a8.5 8.5 0 1 0 17 0 a8.5 8.5 0 1 0 -17 0zM1366.5 437.53 a8.5 8.5 0 1 0 17 0 a8.5 8.5 0 1 0 -17 0zM1440.11 480.03 a8.5 8.5 0 1 0 17 0 a8.5 8.5 0 1 0 -17 0zM1440.11 565.03 a8.5 8.5 0 1 0 17 0 a8.5 8.5 0 1 0 -17 0zM1366.5 607.53 a8.5 8.5 0 1 0 17 0 a8.5 8.5 0 1 0 -17 0z" fill="rgba(6, 80, 156, 0.93)"></path></g><defs><mask id="SvgjsMask1058"><rect width="1440" height="560" fill="#ffffff"></rect></mask></defs></svg>