<svg xmlns="http://www.w3.org/2000/svg" version="1.1" xmlns:xlink="http://www.w3.org/1999/xlink" xmlns:svgjs="http://svgjs.dev/svgjs" width="1440" height="560" preserveAspectRatio="none" viewBox="0 0 1440 560"><g mask="url(&quot;#SvgjsMask1032&quot;)" fill="none"><rect width="1440" height="560" x="0" y="0" fill="url(&quot;#SvgjsLinearGradient1033&quot;)"></rect><path d="M1440 0L1191.75 0L1440 182.4z" fill="rgba(255, 255, 255, .1)"></path><path d="M1191.75 0L1440 182.4L1440 310.57L643.4 0z" fill="rgba(255, 255, 255, .075)"></path><path d="M643.4 0L1440 310.57L1440 379.23L291.63 0z" fill="rgba(255, 255, 255, .05)"></path><path d="M291.6300000000001 0L1440 379.23L1440 473.84000000000003L110.71000000000012 0z" fill="rgba(255, 255, 255, .025)"></path><path d="M0 560L709.02 560L0 462.97z" fill="rgba(0, 0, 0, .1)"></path><path d="M0 462.97L709.02 560L722.73 560L0 222.41000000000003z" fill="rgba(0, 0, 0, .075)"></path><path d="M0 222.40999999999997L722.73 560L746.39 560L0 89.99999999999997z" fill="rgba(0, 0, 0, .05)"></path><path d="M0 90L746.39 560L1077.78 560L0 47.33z" fill="rgba(0, 0, 0, .025)"></path></g><defs><mask id="SvgjsMask1032"><rect width="1440" height="560" fill="#ffffff"></rect></mask><linearGradient x1="84.72%" y1="-39.29%" x2="15.28%" y2="139.29%" gradientUnits="userSpaceOnUse" id="SvgjsLinearGradient1033"><stop stop-color="#0e2a47" offset="0"></stop><stop stop-color="#00459e" offset="1"></stop></linearGradient></defs></svg>